/* XPM */
static char * devcoin32_xpm[] = {
"32 32 810 2",
"  	c None",
". 	c #D1BF6F",
"+ 	c #D7C778",
"@ 	c #D6C683",
"# 	c #D9CA92",
"$ 	c #E0D3A7",
"% 	c #E5DEBF",
"& 	c #F3F0DE",
"* 	c #FAF9F2",
"= 	c #BFAD5F",
"- 	c #C3AE62",
"; 	c #C2A962",
"> 	c #BC995F",
", 	c #BE8B59",
"' 	c #CF925C",
") 	c #D59A63",
"! 	c #D7AB77",
"~ 	c #E7B892",
"{ 	c #DEC0A8",
"] 	c #DFD1C6",
"^ 	c #EBE7E3",
"/ 	c #EEE8E0",
"( 	c #F0E7D6",
"_ 	c #B39F59",
": 	c #B8A45B",
"< 	c #AE8F57",
"[ 	c #AA7440",
"} 	c #BA884A",
"| 	c #BC8C4E",
"1 	c #CA8D4E",
"2 	c #D29457",
"3 	c #D9B779",
"4 	c #E3AA78",
"5 	c #EDC09B",
"6 	c #F3D5BC",
"7 	c #F0DECB",
"8 	c #D8C6A5",
"9 	c #E5C5A7",
"0 	c #CFB69D",
"a 	c #E1CCAC",
"b 	c #E2CBA4",
"c 	c #AF9D57",
"d 	c #A99057",
"e 	c #9C6A38",
"f 	c #9E622C",
"g 	c #AB743C",
"h 	c #BD8B51",
"i 	c #C49F60",
"j 	c #CE9659",
"k 	c #D89E64",
"l 	c #DFA76D",
"m 	c #E9B78A",
"n 	c #F4CCAB",
"o 	c #F7DDC8",
"p 	c #F2E0CE",
"q 	c #F0D7C3",
"r 	c #C2A77F",
"s 	c #E9B286",
"t 	c #DB9C68",
"u 	c #C4A377",
"v 	c #D7B680",
"w 	c #B19D5B",
"x 	c #946F43",
"y 	c #996D3C",
"z 	c #9A723F",
"A 	c #A46D3A",
"B 	c #B27D47",
"C 	c #CEA96F",
"D 	c #768C44",
"E 	c #2D7225",
"F 	c #479842",
"G 	c #577F40",
"H 	c #41993E",
"I 	c #33782B",
"J 	c #5C9955",
"K 	c #5D9756",
"L 	c #D4C2A2",
"M 	c #F1C2A0",
"N 	c #E4A875",
"O 	c #D99357",
"P 	c #BE8C53",
"Q 	c #C2915D",
"R 	c #CDA96A",
"S 	c #B2995B",
"T 	c #865F38",
"U 	c #723F19",
"V 	c #8C592E",
"W 	c #B18A58",
"X 	c #AD905A",
"Y 	c #6A8340",
"Z 	c #29842E",
"` 	c #1C7D2A",
" .	c #20852E",
"..	c #1D9A30",
"+.	c #359135",
"@.	c #1D7D25",
"#.	c #1E7422",
"$.	c #4BA350",
"%.	c #2BA14C",
"&.	c #00610D",
"*.	c #4B883D",
"=.	c #CDA56A",
"-.	c #CD9B61",
";.	c #C8884A",
">.	c #CB8848",
",.	c #BB8751",
"'.	c #C8A364",
").	c #AF9258",
"!.	c #89653E",
"~.	c #794E23",
"{.	c #7D4D27",
"].	c #926139",
"^.	c #8F8F52",
"/.	c #1F7C21",
"(.	c #29892A",
"_.	c #286A1B",
":.	c #1C9833",
"<.	c #2C762F",
"[.	c #056A1A",
"}.	c #859466",
"|.	c #628951",
"1.	c #2C9A3E",
"2.	c #39A753",
"3.	c #1B9431",
"4.	c #43863C",
"5.	c #005C0B",
"6.	c #005809",
"7.	c #979152",
"8.	c #D29251",
"9.	c #C68545",
"0.	c #BE8546",
"a.	c #B0834E",
"b.	c #C6A467",
"c.	c #AD9258",
"d.	c #A28457",
"e.	c #7D592E",
"f.	c #8A603A",
"g.	c #926841",
"h.	c #889553",
"i.	c #2B752C",
"j.	c #025C0C",
"k.	c #317320",
"l.	c #0E8225",
"m.	c #1F852B",
"n.	c #29A13F",
"o.	c #1F9D41",
"p.	c #558D50",
"q.	c #5DB56B",
"r.	c #52A85A",
"s.	c #5BA760",
"t.	c #057B1E",
"u.	c #416431",
"v.	c #387029",
"w.	c #046B10",
"x.	c #266E24",
"y.	c #728D4A",
"z.	c #C68C4D",
"A.	c #B58449",
"B.	c #B77C3F",
"C.	c #B49056",
"D.	c #B6945B",
"E.	c #6E3612",
"F.	c #885A34",
"G.	c #9D7E4D",
"H.	c #908654",
"I.	c #2E8434",
"J.	c #0A761F",
"K.	c #377F2D",
"L.	c #01851A",
"M.	c #39A444",
"N.	c #3BB85D",
"O.	c #187927",
"P.	c #22B542",
"Q.	c #8DBD7A",
"R.	c #76B979",
"S.	c #2BA451",
"T.	c #12832C",
"U.	c #0D6017",
"V.	c #1B601E",
"W.	c #35702E",
"X.	c #355C23",
"Y.	c #057011",
"Z.	c #226719",
"`.	c #838347",
" +	c #C19355",
".+	c #AE743A",
"++	c #B17236",
"@+	c #B9975B",
"#+	c #BBA965",
"$+	c #AD814C",
"%+	c #98612E",
"&+	c #986032",
"*+	c #A68459",
"=+	c #456C30",
"-+	c #06530C",
";+	c #056514",
">+	c #118B20",
",+	c #23A636",
"'+	c #0EA835",
")+	c #6AAC56",
"!+	c #12AB33",
"~+	c #10B343",
"{+	c #1BAE4F",
"]+	c #078630",
"^+	c #0B943A",
"/+	c #278D45",
"(+	c #527B44",
"_+	c #388436",
":+	c #126C1B",
"<+	c #49923C",
"[+	c #377E2E",
"}+	c #3E8B33",
"|+	c #367A2B",
"1+	c #C3905C",
"2+	c #B27235",
"3+	c #A97238",
"4+	c #AB834D",
"5+	c #C3A66E",
"6+	c #C8B770",
"7+	c #C66D27",
"8+	c #D6BA70",
"9+	c #C0844C",
"0+	c #39742C",
"a+	c #15852B",
"b+	c #45813A",
"c+	c #26772D",
"d+	c #5A9D4B",
"e+	c #22B340",
"f+	c #3AAF45",
"g+	c #3DAE43",
"h+	c #CFD29B",
"i+	c #C8D7A8",
"j+	c #BFC997",
"k+	c #A9AF7C",
"l+	c #568449",
"m+	c #007321",
"n+	c #10671B",
"o+	c #438942",
"p+	c #259F35",
"q+	c #06841E",
"r+	c #3B8533",
"s+	c #618C47",
"t+	c #3D7B2D",
"u+	c #526C35",
"v+	c #B3763A",
"w+	c #AA8343",
"x+	c #A7682F",
"y+	c #B99D66",
"z+	c #BFA25D",
"A+	c #D9923A",
"B+	c #D9A65D",
"C+	c #C4A66F",
"D+	c #047F15",
"E+	c #0F8A2F",
"F+	c #35994B",
"G+	c #198624",
"H+	c #109B2A",
"I+	c #298E28",
"J+	c #00A223",
"K+	c #41B251",
"L+	c #F2DB9F",
"M+	c #E4D390",
"N+	c #F2DC9E",
"O+	c #FFF4BF",
"P+	c #FDF7DC",
"Q+	c #ADB988",
"R+	c #046E1F",
"S+	c #058F24",
"T+	c #649A5B",
"U+	c #4EA456",
"V+	c #689552",
"W+	c #508240",
"X+	c #589153",
"Y+	c #046B12",
"Z+	c #BB864F",
"`+	c #AA652B",
" @	c #A9652E",
".@	c #AF8953",
"+@	c #7D6940",
"@@	c #BB833F",
"#@	c #DD9E4C",
"$@	c #E3BB6F",
"%@	c #538842",
"&@	c #3E8E43",
"*@	c #148A31",
"=@	c #43943B",
"-@	c #22913E",
";@	c #559E4E",
">@	c #12A53B",
",@	c #1AAB34",
"'@	c #37963E",
")@	c #C5C07B",
"!@	c #658F4D",
"~@	c #00510A",
"{@	c #043308",
"]@	c #C2CFB9",
"^@	c #FFF3C3",
"/@	c #567141",
"(@	c #02510B",
"_@	c #007A12",
":@	c #2A9639",
"<@	c #29AA44",
"[@	c #149F3A",
"}@	c #4E9C54",
"|@	c #00851A",
"1@	c #77A053",
"2@	c #AA642D",
"3@	c #A35F2A",
"4@	c #A77742",
"5@	c #C2A775",
"6@	c #654D2A",
"7@	c #C65928",
"8@	c #A38F49",
"9@	c #DD8C52",
"0@	c #3A6226",
"a@	c #07611E",
"b@	c #1D651C",
"c@	c #469053",
"d@	c #218F3E",
"e@	c #318032",
"f@	c #769556",
"g@	c #28973B",
"h@	c #01700C",
"i@	c #32732B",
"j@	c #378037",
"k@	c #3C793D",
"l@	c #3E7843",
"m@	c #518053",
"n@	c #F9E6B3",
"o@	c #BAB480",
"p@	c #3C6938",
"q@	c #2B5621",
"r@	c #628E5C",
"s@	c #6CB36B",
"t@	c #409F4B",
"u@	c #50A256",
"v@	c #10841C",
"w@	c #208825",
"x@	c #A7632D",
"y@	c #D3BA77",
"z@	c #9F6734",
"A@	c #C3AA77",
"B@	c #6A4E2A",
"C@	c #CD3A15",
"D@	c #D34F25",
"E@	c #DC6831",
"F@	c #1F3314",
"G@	c #2E461D",
"H@	c #02430F",
"I@	c #3B5F2F",
"J@	c #224B1E",
"K@	c #0C641F",
"L@	c #067B22",
"M@	c #087F29",
"N@	c #388A38",
"O@	c #BD9E65",
"P@	c #D5C38F",
"Q@	c #E2D49F",
"R@	c #EDE8CC",
"S@	c #E5D3AC",
"T@	c #F2E3B8",
"U@	c #DABE81",
"V@	c #ECD5A6",
"W@	c #498337",
"X@	c #397436",
"Y@	c #389C3E",
"Z@	c #3CA844",
"`@	c #3C8735",
" #	c #75965E",
".#	c #02760F",
"+#	c #A86B36",
"@#	c #9C5825",
"##	c #A25F29",
"$#	c #BFA877",
"%#	c #75522C",
"&#	c #B23612",
"*#	c #BC4523",
"=#	c #C95F32",
"-#	c #071D08",
";#	c #042007",
">#	c #353F22",
",#	c #1D2E12",
"'#	c #0D3310",
")#	c #04440E",
"!#	c #274917",
"~#	c #012F05",
"{#	c #1F631E",
"]#	c #3F7833",
"^#	c #407C32",
"/#	c #44893B",
"(#	c #429D4D",
"_#	c #70985C",
":#	c #FCDEAD",
"<#	c #C4CD98",
"[#	c #4A903F",
"}#	c #048714",
"|#	c #268E31",
"1#	c #4CA654",
"2#	c #2A8A31",
"3#	c #43773B",
"4#	c #448D3E",
"5#	c #527E41",
"6#	c #AB703A",
"7#	c #9E5926",
"8#	c #A55F2A",
"9#	c #BCA474",
"0#	c #76542E",
"a#	c #85300D",
"b#	c #804621",
"c#	c #A44D2E",
"d#	c #27421D",
"e#	c #172E12",
"f#	c #284522",
"g#	c #001D02",
"h#	c #0A3010",
"i#	c #042A08",
"j#	c #02350B",
"k#	c #012E08",
"l#	c #3B5B2A",
"m#	c #8D7D42",
"n#	c #948B4F",
"o#	c #9A955B",
"p#	c #A29B67",
"q#	c #A8A073",
"r#	c #DBC59C",
"s#	c #D5BB8B",
"t#	c #C0B78B",
"u#	c #3A9637",
"v#	c #4CA564",
"w#	c #7FA563",
"x#	c #418B3D",
"y#	c #3F8A41",
"z#	c #047F20",
"A#	c #428136",
"B#	c #B3753D",
"C#	c #AF7F46",
"D#	c #AC662D",
"E#	c #BCA674",
"F#	c #775A32",
"G#	c #5A2B0B",
"H#	c #7C5621",
"I#	c #6A361C",
"J#	c #354C24",
"K#	c #384820",
"L#	c #11320F",
"M#	c #28451F",
"N#	c #022104",
"O#	c #023408",
"P#	c #053309",
"Q#	c #004E0E",
"R#	c #8E813D",
"S#	c #AD763C",
"T#	c #BB8542",
"U#	c #B78141",
"V#	c #B78748",
"W#	c #947344",
"X#	c #E5C977",
"Y#	c #8C7146",
"Z#	c #A38B57",
"`#	c #246120",
" $	c #438948",
".$	c #138430",
"+$	c #1C822B",
"@$	c #6A9B55",
"#$	c #1C8D28",
"$$	c #7CA75C",
"%$	c #C28143",
"&$	c #CAA05E",
"*$	c #B67135",
"=$	c #C1AD77",
"-$	c #7D6034",
";$	c #3D170A",
">$	c #421E0A",
",$	c #45260F",
"'$	c #243B16",
")$	c #0A4115",
"!$	c #183610",
"~$	c #153D11",
"{$	c #324E27",
"]$	c #2E4E23",
"^$	c #023A0E",
"/$	c #032E09",
"($	c #00400D",
"_$	c #154815",
":$	c #04300C",
"<$	c #0D5217",
"[$	c #216318",
"}$	c #2A4427",
"|$	c #5F4227",
"1$	c #5B5A2C",
"2$	c #002F09",
"3$	c #0F5022",
"4$	c #364926",
"5$	c #13591A",
"6$	c #2C632E",
"7$	c #3B7231",
"8$	c #3E7D36",
"9$	c #418648",
"0$	c #CE8F4A",
"a$	c #CA7F3B",
"b$	c #C18540",
"c$	c #C6B57D",
"d$	c #7E6039",
"e$	c #442511",
"f$	c #2E1003",
"g$	c #321506",
"h$	c #2B3317",
"i$	c #2A4119",
"j$	c #2A4B1E",
"k$	c #28471C",
"l$	c #2F461D",
"m$	c #727142",
"n$	c #03390B",
"o$	c #02380A",
"p$	c #365320",
"q$	c #97653A",
"r$	c #817337",
"s$	c #2F631F",
"t$	c #739449",
"u$	c #C4B17A",
"v$	c #5A3C27",
"w$	c #132C10",
"x$	c #092A0E",
"y$	c #093410",
"z$	c #0D280B",
"A$	c #0C2A0A",
"B$	c #284820",
"C$	c #245224",
"D$	c #19521D",
"E$	c #5B6535",
"F$	c #BE8345",
"G$	c #C78843",
"H$	c #B58B49",
"I$	c #ADA172",
"J$	c #563918",
"K$	c #27140C",
"L$	c #7A5526",
"M$	c #4F3C24",
"N$	c #0D2F0C",
"O$	c #4A542A",
"P$	c #2A461E",
"Q$	c #2A4C22",
"R$	c #304621",
"S$	c #415D36",
"T$	c #173F1A",
"U$	c #3D5C2E",
"V$	c #9E6736",
"W$	c #A17A3D",
"X$	c #DEC05D",
"Y$	c #DBBE68",
"Z$	c #78512C",
"`$	c #263817",
" %	c #012709",
".%	c #042D10",
"+%	c #34331B",
"@%	c #072307",
"#%	c #12300F",
"$%	c #2D431B",
"%%	c #36461B",
"&%	c #193916",
"*%	c #80492A",
"=%	c #988349",
"-%	c #9B6232",
";%	c #786136",
">%	c #785832",
",%	c #160605",
"'%	c #321709",
")%	c #301203",
"!%	c #484E29",
"~%	c #253517",
"{%	c #35411F",
"]%	c #1B2C12",
"^%	c #2C3B1E",
"/%	c #2E4A21",
"(%	c #3D5E2D",
"_%	c #193C15",
":%	c #344417",
"<%	c #3F5E20",
"[%	c #44551F",
"}%	c #2B4F1A",
"|%	c #012D06",
"1%	c #011902",
"2%	c #041003",
"3%	c #3B4222",
"4%	c #102610",
"5%	c #0C1E0A",
"6%	c #353B1B",
"7%	c #303C1A",
"8%	c #394220",
"9%	c #313F1B",
"0%	c #7B351D",
"a%	c #79401E",
"b%	c #81391F",
"c%	c #474127",
"d%	c #7D613A",
"e%	c #432A15",
"f%	c #200804",
"g%	c #290C03",
"h%	c #664E2A",
"i%	c #283717",
"j%	c #32391D",
"k%	c #123B13",
"l%	c #2E351F",
"m%	c #2C4321",
"n%	c #0B3B0F",
"o%	c #315827",
"p%	c #345122",
"q%	c #00400E",
"r%	c #002904",
"s%	c #002101",
"t%	c #174D16",
"u%	c #4C552A",
"v%	c #17320F",
"w%	c #062307",
"x%	c #03280B",
"y%	c #182813",
"z%	c #212B11",
"A%	c #03250A",
"B%	c #434625",
"C%	c #59321B",
"D%	c #662F17",
"E%	c #6D3118",
"F%	c #553218",
"G%	c #4C482F",
"H%	c #5F3B1C",
"I%	c #160906",
"J%	c #5C401E",
"K%	c #3E1F0D",
"L%	c #585327",
"M%	c #1A330E",
"N%	c #2B3B1B",
"O%	c #2E4621",
"P%	c #2C441E",
"Q%	c #08400F",
"R%	c #134B18",
"S%	c #1E6826",
"T%	c #1F5B1D",
"U%	c #3A5926",
"V%	c #336626",
"W%	c #23571C",
"X%	c #2C391D",
"Y%	c #334925",
"Z%	c #01340E",
"`%	c #183414",
" &	c #2C3C1F",
".&	c #002206",
"+&	c #01250C",
"@&	c #483B1D",
"#&	c #5B3517",
"$&	c #6B4620",
"%&	c #6C361B",
"&&	c #3E361E",
"*&	c #7A5F3D",
"=&	c #432612",
"-&	c #29140A",
";&	c #250904",
">&	c #3A190A",
",&	c #3F461D",
"'&	c #253B14",
")&	c #315021",
"!&	c #3B552A",
"~&	c #0B4C19",
"{&	c #186128",
"]&	c #255721",
"^&	c #1E541B",
"/&	c #1C611D",
"(&	c #005C15",
"_&	c #0E4D14",
":&	c #344A24",
"<&	c #395125",
"[&	c #193912",
"}&	c #082A0F",
"|&	c #253C1B",
"1&	c #293A19",
"2&	c #323315",
"3&	c #503015",
"4&	c #543416",
"5&	c #5D3919",
"6&	c #422B11",
"7&	c #544B32",
"8&	c #553622",
"9&	c #27140B",
"0&	c #210B06",
"a&	c #593C1C",
"b&	c #4D2911",
"c&	c #69602C",
"d&	c #293D16",
"e&	c #043B06",
"f&	c #19511B",
"g&	c #1C591F",
"h&	c #135B1D",
"i&	c #2B5221",
"j&	c #24521B",
"k&	c #46622F",
"l&	c #155419",
"m&	c #51653A",
"n&	c #005618",
"o&	c #38441C",
"p&	c #2A3E19",
"q&	c #3D451F",
"r&	c #42391C",
"s&	c #44240E",
"t&	c #623D1C",
"u&	c #563215",
"v&	c #4C2C12",
"w&	c #483722",
"x&	c #442313",
"y&	c #25120B",
"z&	c #290C07",
"A&	c #3B1D0D",
"B&	c #421604",
"C&	c #6B5323",
"D&	c #5D4E28",
"E&	c #015010",
"F&	c #205F1C",
"G&	c #193910",
"H&	c #214817",
"I&	c #405921",
"J&	c #64713C",
"K&	c #314F26",
"L&	c #2B4C16",
"M&	c #254116",
"N&	c #242711",
"O&	c #54391D",
"P&	c #5B3718",
"Q&	c #673F1E",
"R&	c #44230B",
"S&	c #45260E",
"T&	c #3D2514",
"U&	c #3F2113",
"V&	c #34170E",
"W&	c #553216",
"X&	c #461C0C",
"Y&	c #562309",
"Z&	c #6F411C",
"`&	c #815E32",
" *	c #44571B",
".*	c #535224",
"+*	c #085112",
"@*	c #495D29",
"#*	c #0C4307",
"$*	c #274714",
"%*	c #514F22",
"&*	c #714F2D",
"**	c #774C29",
"=*	c #855E29",
"-*	c #5C3613",
";*	c #5F3716",
">*	c #4C2B0F",
",*	c #3E2413",
"'*	c #462A19",
")*	c #461E0D",
"!*	c #48170B",
"~*	c #663912",
"{*	c #6D3E18",
"]*	c #845726",
"^*	c #915E30",
"/*	c #B17A4A",
"(*	c #B48050",
"_*	c #C28B5C",
":*	c #C48D5C",
"<*	c #BF8857",
"[*	c #A77344",
"}*	c #9F613D",
"|*	c #976935",
"1*	c #825228",
"2*	c #72461F",
"3*	c #603615",
"4*	c #51310F",
"5*	c #50331E",
"6*	c #53331D",
"7*	c #572D0F",
"8*	c #6D3B0F",
"9*	c #773E14",
"0*	c #935E27",
"a*	c #8E5728",
"b*	c #AA7238",
"c*	c #AD7E3E",
"d*	c #AD7C3E",
"e*	c #C78A51",
"f*	c #B67A43",
"g*	c #A26A36",
"h*	c #9F5E34",
"i*	c #955D30",
"j*	c #7E4E27",
"k*	c #724A1C",
"l*	c #613F17",
"m*	c #68492B",
"n*	c #6F4817",
"o*	c #8D6417",
"p*	c #9F6D1A",
"q*	c #B1782E",
"r*	c #B57C3F",
"s*	c #B67845",
"t*	c #C68851",
"u*	c #B37945",
"v*	c #BF7F4E",
"w*	c #B17941",
"x*	c #B0783C",
"y*	c #9E6E2C",
"z*	c #8D6623",
"A*	c #7C5A25",
"B*	c #B7901F",
"C*	c #CBA324",
"D*	c #D6B232",
"E*	c #DAB43D",
"F*	c #D8B13D",
"G*	c #D0AB36",
"H*	c #C29B2E",
"I*	c #B18A2C",
"                        . + @ # $ % & *                         ",
"                  = - ; > , ' ) ! ~ { ] ^ / (                   ",
"              _ : < [ } | 1 2 3 4 5 6 7 8 9 0 a b               ",
"            c d e f g h i j k l m n o p q r s t u v             ",
"          w x y z A B C D E F G H I J K L M N O P Q R           ",
"        S T U V W X Y Z `  ...+.@.#.$.%.&.*.=.-.;.>.,.'.        ",
"      ).!.~.{.].^./.(._.:.<.[.}.|.1.2.3.4.5.6.7.8.9.0.a.b.      ",
"    c.d.e.f.g.h.i.j.k.l.m.n.o.p.q.r.s.t.u.v.w.x.y.z.A.B.C.      ",
"    D.E.F.G.H.I.J.K.L.M.N.O.P.Q.R.S.T.U.V.W.X.Y.Z.`. +.+++@+    ",
"  #+$+%+&+*+=+-+;+>+,+'+)+!+~+{+]+^+/+(+_+:+<+[+}+|+1+2+3+4+5+  ",
"  6+7+8+9+0+a+b+c+d+e+f+g+h+i+j+k+l+m+n+o+p+q+r+s+t+u+v+w+x+y+  ",
"  z+A+B+C+D+E+F+G+H+I+J+K+L+M+N+O+P+Q+R+S+T+U+V+W+X+Y+Z+`+ @.@  ",
"+@@@#@$@%@&@*@=@-@;@>@,@'@)@!@~@{@]@^@/@(@_@:@<@[@}@|@1@2@3@4@5@",
"6@7@8@9@0@a@b@c@d@e@f@g@h@i@j@k@l@m@n@o@p@q@r@s@t@u@v@w@x@y@z@A@",
"B@C@D@E@F@G@H@I@J@K@L@M@N@O@P@Q@R@S@T@U@V@W@X@Y@Z@`@ #.#+#@###$#",
"%#&#*#=#-#;#>#,#'#)#!#~#{#]#^#/#(#_#:#<#[#}#|#1#2#3#4#5#6#7#8#9#",
"0#a#b#c#d#e#f#g#h#i#j#k#l#m#n#o#p#q#r#s#t#u#v#w#x#y#z#A#B#C#D#E#",
"F#G#H#I#J#K#L#M#N#O#P#Q#R#S#T#U#V#W#X#Y#Z#`# $.$+$@$#$$$%$&$*$=$",
"-$;$>$,$'$)$!$~${$]$^$/$($_$:$<$[$}$|$1$2$3$4$5$6$7$8$9$0$a$b$c$",
"d$e$f$g$h$i$j$k$l$m$n$o$p$q$r$s$t$u$v$w$x$y$z$A$B$C$D$E$F$G$H$I$",
"  J$K$L$M$N$O$P$Q$R$S$T$U$V$W$X$Y$Z$`$ %.%+%@%#%$%%%&%*%=%-%;%  ",
"  >%,%'%)%!%~%{%]%^%/%(%_%:%<%[%}%|%1%2%3%4%5%6%7%8%9%0%a%b%c%  ",
"  d%e%f%g%h%i%j%k%l%m%n%o%p%q%r%s%t%u%v%w%x%y%z%A%B%C%D%E%F%G%  ",
"    H%I%J%K%L%M%N%O%P%Q%R%S%T%U%V%W%X%Y%Z%`% &.&+&@&#&$&%&&&    ",
"    *&=&-&;&>&,&'&)&!&~&{&]&^&/&(&_&:&<&[&}&|&1&2&3&4&5&6&7&    ",
"      8&9&0&a&b&c&d&e&f&g&h&i&j&k&l&m&n&o&p&q&r&s&t&u&v&w&      ",
"        x&y&z&A&B&C&D&E&F&G&H&I&J&R%K&L&M&N&O&P&Q&R&S&T&        ",
"          U&V&W&X&Y&Z&`& *.*+*s%@*#*$*%*&***=*-*;*>*,*          ",
"            '*)*!*~*{*]*^*/*(*_*:*<*[*}*|*1*2*3*4*5*            ",
"              6*7*8*9*0*a*b*c*d*e*f*g*h*i*j*k*l*m*              ",
"                  n*o*p*q*r*s*t*u*v*w*x*y*z*A*                  ",
"                        B*C*D*E*F*G*H*I*                        "};
